<?xml version="1.0" encoding="UTF-8"?>
<svg version="1.1" xmlns="http://www.w3.org/2000/svg" width="584" height="290">
<path d="M0 0 C2.93288729 2.33207176 5.88226564 4.64303568 8.83056641 6.95556641 C9.99731785 7.87212516 11.1639844 8.788792 12.33056641 9.70556641 C12.90806641 10.15931641 13.48556641 10.61306641 14.08056641 11.08056641 C34.49723307 27.12223307 54.91389974 43.16389974 75.33056641 59.20556641 C75.90798584 59.65923584 76.48540527 60.11290527 77.08032227 60.58032227 C78.2478705 61.49771649 79.41535089 62.41519707 80.58276367 63.33276367 C83.48539431 65.61400885 86.38915914 67.89377855 89.29541016 70.17041016 C97.85195165 76.87604295 106.38702177 83.60791616 114.83056641 90.45556641 C115.65943359 91.12587891 116.48830078 91.79619141 117.34228516 92.48681641 C124.16666464 98.20629635 130.08980533 104.60352648 131.08056641 113.76806641 C131.44621768 121.26391753 129.50437179 126.21459019 124.76806641 131.95556641 C117.28428831 138.32473925 109.13969259 143.59771993 100.79711914 148.75 C95.86742506 151.79482813 91.03231664 154.95443971 86.22509766 158.18994141 C76.58832889 164.6522803 66.82731598 170.94620515 57.01806641 177.14306641 C52.07929981 180.26759221 47.2275245 183.51583577 42.37182617 186.76708984 C37.89165451 189.76182964 33.37119073 192.68304927 28.81494141 195.56103516 C25.09763972 197.92084055 21.40110044 200.31186349 17.70556641 202.70556641 C16.62674194 203.40383545 16.62674194 203.40383545 15.52612305 204.11621094 C11.78484362 206.53866971 8.04631841 208.96527819 4.31103516 211.39697266 C-20.45417801 227.5018247 -20.45417801 227.5018247 -30.16943359 226.45556641 C-34.59237224 224.40790962 -37.2394548 221.82867606 -39.47412109 217.44384766 C-41.26299283 212.32847848 -40.85342021 208.12775463 -38.82568359 203.17041016 C-35.61882501 197.86599265 -30.23143339 194.87000161 -25.16943359 191.51806641 C-24.12505127 190.81004883 -23.08066895 190.10203125 -22.00463867 189.37255859 C-19.06860081 187.38632772 -16.12107978 185.41849441 -13.16943359 183.45556641 C-11.98512394 182.65845194 -10.80136445 181.86051805 -9.61865234 181.06103516 C-6.81287579 179.17596604 -3.99269452 177.31433636 -1.16943359 175.45556641 C8.92644316 168.76845452 18.97013385 162.01154356 28.95410156 155.15844727 C33.53713802 152.01561996 38.1361014 148.90076799 42.76806641 145.83056641 C51.50942295 140.03619618 60.17349896 134.12719921 68.84594727 128.23046875 C75.15439787 123.94227149 81.47213848 119.66950979 87.83056641 115.45556641 C86.26848071 112.11731076 84.88396069 110.45850435 81.89306641 108.26806641 C78.38300212 105.63691774 74.95848021 102.94233319 71.58056641 100.14306641 C68.51106924 97.60909853 65.41838804 95.12516512 62.24072266 92.72900391 C61.34305176 92.05091675 61.34305176 92.05091675 60.42724609 91.35913086 C59.25371042 90.47705212 58.07606344 89.60041221 56.89404297 88.72973633 C55.5036792 87.68442788 54.16182527 86.57517839 52.83056641 85.45556641 C52.83056641 84.79556641 52.83056641 84.13556641 52.83056641 83.45556641 C52.29818359 83.22353516 51.76580078 82.99150391 51.21728516 82.75244141 C48.09787622 81.05744342 45.40805807 78.91254388 42.64306641 76.70556641 C42.03720703 76.22603516 41.43134766 75.74650391 40.80712891 75.25244141 C35.19831538 70.79269515 29.6768842 66.22779978 24.15893555 61.65649414 C19.68475065 57.95730108 15.16338386 54.33154986 10.58056641 50.76806641 C4.89701663 46.34510193 -0.61224191 41.74536342 -6.09130859 37.07275391 C-11.87002774 32.14680963 -17.72695332 27.3156049 -23.75537109 22.69775391 C-40.64915173 9.73265658 -40.64915173 9.73265658 -42.16943359 1.45556641 C-42.24993206 -4.25982473 -40.83008659 -8.04705991 -37.16943359 -12.54443359 C-24.52605759 -24.0024931 -9.877165 -7.86984489 0 0 Z " fill="#00B7D7" transform="translate(426.16943359375,36.54443359375)"/>
<path d="M0 0 C3.64724029 2.85051304 5.83755251 5.65947968 6.5078125 10.2421875 C6.52070313 11.05171875 6.53359375 11.86125 6.546875 12.6953125 C6.57523438 13.49453125 6.60359375 14.29375 6.6328125 15.1171875 C5.4054897 22.64754096 0.81103238 27.88425465 -4.5 33.04296875 C-5.14124817 33.6809288 -5.78249634 34.31888885 -6.44317627 34.97618103 C-8.47892993 36.99631 -10.52841736 39.00185452 -12.578125 41.0078125 C-13.93836789 42.35654714 -15.29775069 43.70614979 -16.65625 45.05664062 C-17.97840038 46.36535794 -19.30129338 47.67332552 -20.625 48.98046875 C-21.52856232 49.87295067 -21.52856232 49.87295067 -22.45037842 50.78346252 C-25.4885095 53.75517455 -28.57859689 56.62475047 -31.79589844 59.40209961 C-35.90021514 62.95873925 -39.73223479 66.73862681 -43.546875 70.6015625 C-44.24905151 71.30752563 -44.95122803 72.01348877 -45.67468262 72.74084473 C-47.89497103 74.97322608 -50.11196455 77.20883361 -52.328125 79.4453125 C-55.25221979 82.39621628 -58.17975557 85.34364453 -61.109375 88.2890625 C-62.092547 89.28468201 -62.092547 89.28468201 -63.09558105 90.30041504 C-66.24335361 93.4645812 -69.43434999 96.51463117 -72.81494141 99.42993164 C-77.00058204 103.04301361 -80.88257259 106.90669359 -84.7578125 110.84765625 C-86.22643465 112.32890281 -87.69518832 113.81001898 -89.1640625 115.29101562 C-91.45045912 117.60239343 -93.73520781 119.91535896 -96.01757812 122.23071289 C-98.23918547 124.48233557 -100.46681905 126.72785182 -102.6953125 128.97265625 C-103.38172821 129.67253159 -104.06814392 130.37240692 -104.77536011 131.0934906 C-105.72742844 132.05062706 -105.72742844 132.05062706 -106.69873047 133.02709961 C-107.25640106 133.59222763 -107.81407166 134.15735565 -108.38864136 134.73960876 C-109.828125 135.9453125 -109.828125 135.9453125 -111.828125 135.9453125 C-111.828125 137.2653125 -111.828125 138.5853125 -111.828125 139.9453125 C-110.71244141 140.47705078 -110.71244141 140.47705078 -109.57421875 141.01953125 C-100.84991195 145.27353209 -92.41634496 149.95457338 -83.98608398 154.76245117 C-76.98154188 158.74946073 -69.92655691 162.62823664 -62.828125 166.4453125 C-54.10255361 171.14261478 -45.45028977 175.95224379 -36.83740234 180.8527832 C-29.5419695 184.9965345 -22.2022765 189.05428831 -14.8477478 193.09170532 C-9.5007006 196.02994148 -4.16311514 198.9852483 1.171875 201.9453125 C2.58774902 202.73010986 2.58774902 202.73010986 4.03222656 203.53076172 C6.42059312 204.86299565 8.79829129 206.21196196 11.171875 207.5703125 C11.82913574 207.93535889 12.48639648 208.30040527 13.16357422 208.67651367 C18.0249728 211.50092237 21.63375669 214.86907588 24.171875 219.9453125 C24.78383187 225.86089557 24.08118453 229.29485437 20.65234375 234.18359375 C16.89599177 238.65355349 13.05309847 240.36388773 7.29656982 240.98254395 C3.69136966 240.91936931 0.86260387 239.31605045 -2.1953125 237.5859375 C-3.60243314 236.83638966 -5.00966394 236.0870486 -6.41699219 235.33789062 C-7.14108276 234.9431958 -7.86517334 234.54850098 -8.61120605 234.1418457 C-11.53508494 232.56374643 -14.49610315 231.06492494 -17.46142578 229.56655884 C-21.30059114 227.62629908 -25.1259395 225.65906806 -28.953125 223.6953125 C-30.17050354 223.07103363 -30.17050354 223.07103363 -31.41247559 222.43414307 C-41.53952208 217.23651307 -51.60754165 211.95971682 -61.56494141 206.44238281 C-69.73271518 201.94021493 -78.02744645 197.69535123 -86.328125 193.4453125 C-97.63756427 187.65383409 -108.8612547 181.74176408 -119.984375 175.59765625 C-123.21308898 173.81707741 -126.46017018 172.0821954 -129.734375 170.38671875 C-130.90033203 169.78150391 -130.90033203 169.78150391 -132.08984375 169.1640625 C-133.51625142 168.42720967 -134.94565473 167.69610702 -136.37890625 166.97265625 C-143.67228693 163.19970575 -149.36930258 158.56574596 -152.828125 150.9453125 C-154.86555674 144.13304074 -153.59768371 137.38220736 -150.828125 130.9453125 C-146.57702347 123.28613091 -140.67468926 117.4016725 -134.453125 111.3203125 C-133.545625 110.41796875 -132.638125 109.515625 -131.703125 108.5859375 C-127.09096498 104.02694359 -122.40320815 99.61667735 -117.48583984 95.38916016 C-115.50332413 93.66241525 -113.65387153 91.83626426 -111.828125 89.9453125 C-109.38154974 87.41135955 -106.83521899 85.07647548 -104.1640625 82.78515625 C-98.46757863 77.84001668 -93.27240974 72.40152636 -88.01171875 67.00195312 C-87.24214844 66.22142578 -86.47257812 65.44089844 -85.6796875 64.63671875 C-84.98697754 63.92717041 -84.29426758 63.21762207 -83.58056641 62.48657227 C-81.828125 60.9453125 -81.828125 60.9453125 -79.828125 60.9453125 C-79.498125 59.9553125 -79.168125 58.9653125 -78.828125 57.9453125 C-77.15625 56.296875 -77.15625 56.296875 -75.078125 54.5703125 C-72.58696154 52.46755624 -70.20043972 50.3695115 -67.953125 48.0078125 C-65.828125 45.9453125 -65.828125 45.9453125 -63.828125 45.9453125 C-63.46074219 45.07132813 -63.46074219 45.07132813 -63.0859375 44.1796875 C-61.61086634 41.55937475 -59.9974204 40.13963064 -57.703125 38.1953125 C-52.11716188 33.30759477 -46.91230178 28.09015871 -41.71435547 22.79394531 C-37.80976454 18.83965781 -33.78993379 15.11501718 -29.578125 11.49023438 C-27.54440002 9.69483654 -25.71484282 7.76403844 -23.890625 5.7578125 C-17.45254031 -0.70542096 -8.69379623 -5.01565167 0 0 Z " fill="#00B7D6" transform="translate(169.828125,24.0546875)"/>
<path d="M0 0 C1.29808594 -0.00515625 2.59617187 -0.0103125 3.93359375 -0.015625 C8.45389185 0.3152472 11.28266977 1.28147982 14.875 4 C17.08606882 6.94809177 17.02307736 8.642144 16.5625 12.25 C15.9025 13.24 15.2425 14.23 14.5625 15.25 C13.89403879 17.2778529 13.2747222 19.32214884 12.6875 21.375 C10.41224914 28.95916954 7.54832792 35.58381739 3.5546875 42.41015625 C-0.3354928 49.62383705 -2.69984387 57.71069966 -5.33154297 65.44873047 C-6.45079311 68.69255854 -7.52348495 71.37897742 -9.4375 74.25 C-10.0975 74.25 -10.7575 74.25 -11.4375 74.25 C-11.54320312 75.27480469 -11.64890625 76.29960938 -11.7578125 77.35546875 C-12.43944964 81.26117121 -13.54627281 84.03443923 -15.3125 87.5625 C-17.60122819 92.30343697 -19.37383651 96.81806879 -20.6015625 101.93359375 C-21.4375 104.25 -21.4375 104.25 -23.33203125 107.00390625 C-25.78949658 110.7926886 -27.10889528 114.48294562 -28.5 118.75 C-30.17491979 123.80585867 -31.97881471 128.50634087 -34.4375 133.25 C-35.10392977 134.86666232 -35.75104656 136.49147382 -36.375 138.125 C-37.58836976 141.22532122 -38.87602684 144.1857564 -40.4375 147.125 C-42.15326565 150.42918932 -43.30947986 153.76540543 -44.4375 157.3125 C-45.96703664 162.09982926 -47.86242095 165.95820158 -50.4375 170.25 C-51.10499752 172.24972286 -51.77157057 174.24975441 -52.4375 176.25 C-53.34970384 178.26166359 -54.28865167 180.26135332 -55.25 182.25 C-57.99391652 188.09922693 -60.22469708 194.02283414 -62.3359375 200.125 C-63.55490686 203.58306912 -64.92707137 206.91115777 -66.4375 210.25 C-67.0975 210.25 -67.7575 210.25 -68.4375 210.25 C-68.54578125 211.27996094 -68.6540625 212.30992187 -68.765625 213.37109375 C-69.42760431 217.19286963 -70.46116063 219.86427058 -72.1875 223.3125 C-75.07790712 229.28046289 -77.24296172 235.24779809 -79.26171875 241.546875 C-79.64972656 242.43890625 -80.03773438 243.3309375 -80.4375 244.25 C-81.4275 244.58 -82.4175 244.91 -83.4375 245.25 C-83.5303125 246.61125 -83.5303125 246.61125 -83.625 248 C-84.4375 251.25 -84.4375 251.25 -86.625 253.5625 C-92.72801673 257.22431004 -100.48994466 256.80169013 -107.4375 256.25 C-110.24609375 255.42578125 -110.24609375 255.42578125 -112.4375 254.25 C-112.7675 253.26 -113.0975 252.27 -113.4375 251.25 C-114.0975 251.25 -114.7575 251.25 -115.4375 251.25 C-117.02339976 246.09582578 -115.85864478 243.13903814 -113.640625 238.49609375 C-112.4375 236.25 -112.4375 236.25 -110.953125 233.90234375 C-109.18942106 230.81586186 -108.08548627 227.73801107 -106.9375 224.375 C-105.26241494 219.56475574 -103.4961576 214.9043563 -101.4375 210.25 C-100.8086253 208.66820164 -100.18400314 207.08470921 -99.5625 205.5 C-98.20146633 202.07183249 -96.74830121 198.71658112 -95.1875 195.375 C-92.31661 189.1517664 -89.81073498 182.79003269 -87.29199219 176.41845703 C-84.7047349 169.8760997 -82.00853427 163.42481018 -79 157.0625 C-76.74801214 152.15397556 -75.05219403 147.18181573 -73.41015625 142.04296875 C-72.31957471 138.91137918 -70.96838781 136.06210273 -69.3671875 133.1640625 C-68.32911922 131.13472374 -68.32911922 131.13472374 -67.4921875 128.38671875 C-66.43768365 125.2505462 -65.1366044 122.40972219 -63.6875 119.4375 C-60.90813562 113.5262665 -58.66909293 107.5382839 -56.61816406 101.33862305 C-55.20285648 97.13335275 -53.51066713 93.24745706 -51.47924805 89.30419922 C-48.11566141 82.67161942 -45.48368855 75.81198592 -43 68.8125 C-40.86567999 62.90684621 -38.62233042 57.24310542 -35.68359375 51.68359375 C-31.75212556 44.00552264 -28.63298515 35.95383904 -25.8125 27.8125 C-24.09260043 22.87330125 -22.15896066 18.69505241 -19.4375 14.25 C-18.963125 13.05375 -18.48875 11.8575 -18 10.625 C-14.10878146 2.21996795 -8.80824175 -0.0349187 0 0 Z " fill="#00B8D7" transform="translate(335.4375,14.75)"/>
<path d="M0 0 C0.33 0 0.66 0 1 0 C1 1.65 1 3.3 1 5 C0.01 5.33 -0.98 5.66 -2 6 C-2.103125 7.03125 -2.20625 8.0625 -2.3125 9.125 C-2.99647839 12.98015093 -4.00699485 15.65175135 -6 19 C-6.66 19.33 -7.32 19.66 -8 20 C-3.4351585 3.4351585 -3.4351585 3.4351585 0 0 Z " fill="#00C8EC" transform="translate(269,219)"/>
<path d="M0 0 C0.66 0 1.32 0 2 0 C0.99463106 3.43501053 -0.19218719 6.48652 -2 9.5625 C-4.01722647 12.82749008 -4.01722647 12.82749008 -5.125 15.875 C-6 18 -6 18 -8 19 C-3.92134831 3.92134831 -3.92134831 3.92134831 0 0 Z " fill="#00C5E8" transform="translate(342,46)"/>
<path d="M0 0 C0.66 0 1.32 0 2 0 C0.31326082 4.49797113 -1.81673892 8.72886302 -4 13 C-4.66 12.67 -5.32 12.34 -6 12 C-5.19024636 10.18627137 -4.37711979 8.37404826 -3.5625 6.5625 C-2.88380859 5.04849609 -2.88380859 5.04849609 -2.19140625 3.50390625 C-1 1 -1 1 0 0 Z " fill="#00C4E4" transform="translate(298,72)"/>
<path d="M0 0 C0.33 0 0.66 0 1 0 C0.50419272 4.95807282 -0.41039921 8.7171987 -3 13 C-3.99 13.66 -4.98 14.32 -6 15 C-4.40109514 9.80355921 -2.25861997 4.93387858 0 0 Z " fill="#00C7F1" transform="translate(315,109)"/>
<path d="M0 0 C1.39195915 4.17587745 -0.17676781 6.13474776 -2 10 C-2.66 9.67 -3.32 9.34 -4 9 C-2.94124926 5.59687262 -1.99097846 2.98646769 0 0 Z " fill="#00CFF0" transform="translate(285,181)"/>
<path d="M0 0 C0.33 0.66 0.66 1.32 1 2 C-1.45454545 7.72727273 -1.45454545 7.72727273 -4 9 C-3.46930939 5.17902761 -2.50298434 2.93828597 0 0 Z " fill="#00C5E5" transform="translate(226,247)"/>
</svg>
